<svg xmlns="http://www.w3.org/2000/svg" xmlns:xlink="http://www.w3.org/1999/xlink" width="500" zoomAndPan="magnify" viewBox="0 0 375 374.999991" height="500" preserveAspectRatio="xMidYMid meet" version="1.0"><defs><g/><clipPath id="6c6f5004cf"><path d="M 14.554688 83.839844 L 50.972656 83.839844 L 50.972656 120.257812 L 14.554688 120.257812 Z M 14.554688 83.839844 " clip-rule="nonzero"/></clipPath><clipPath id="bb8407ba0b"><path d="M 32.761719 83.839844 C 31.566406 83.839844 30.382812 83.953125 29.210938 84.1875 C 28.039062 84.421875 26.898438 84.765625 25.796875 85.222656 C 24.691406 85.679688 23.640625 86.242188 22.648438 86.90625 C 21.652344 87.570312 20.734375 88.324219 19.886719 89.171875 C 19.042969 90.015625 18.289062 90.9375 17.621094 91.929688 C 16.957031 92.925781 16.398438 93.972656 15.941406 95.078125 C 15.484375 96.183594 15.136719 97.320312 14.902344 98.496094 C 14.671875 99.667969 14.554688 100.851562 14.554688 102.046875 C 14.554688 103.242188 14.671875 104.425781 14.902344 105.601562 C 15.136719 106.773438 15.484375 107.910156 15.941406 109.015625 C 16.398438 110.121094 16.957031 111.167969 17.621094 112.164062 C 18.289062 113.15625 19.042969 114.078125 19.886719 114.921875 C 20.734375 115.769531 21.652344 116.523438 22.648438 117.1875 C 23.640625 117.851562 24.691406 118.414062 25.796875 118.871094 C 26.898438 119.328125 28.039062 119.671875 29.210938 119.90625 C 30.382812 120.140625 31.566406 120.257812 32.761719 120.257812 C 33.960938 120.257812 35.144531 120.140625 36.316406 119.90625 C 37.488281 119.671875 38.628906 119.328125 39.730469 118.871094 C 40.835938 118.414062 41.886719 117.851562 42.878906 117.1875 C 43.875 116.523438 44.792969 115.769531 45.640625 114.921875 C 46.484375 114.078125 47.238281 113.15625 47.902344 112.164062 C 48.570312 111.167969 49.128906 110.121094 49.585938 109.015625 C 50.042969 107.910156 50.390625 106.773438 50.625 105.601562 C 50.855469 104.425781 50.972656 103.242188 50.972656 102.046875 C 50.972656 100.851562 50.855469 99.667969 50.625 98.496094 C 50.390625 97.320312 50.042969 96.183594 49.585938 95.078125 C 49.128906 93.972656 48.570312 92.925781 47.902344 91.929688 C 47.238281 90.9375 46.484375 90.015625 45.640625 89.171875 C 44.792969 88.324219 43.875 87.570312 42.878906 86.90625 C 41.886719 86.242188 40.835938 85.679688 39.730469 85.222656 C 38.628906 84.765625 37.488281 84.421875 36.316406 84.1875 C 35.144531 83.953125 33.960938 83.839844 32.761719 83.839844 Z M 32.761719 83.839844 " clip-rule="nonzero"/></clipPath><clipPath id="9a0be55c06"><path d="M 72.828125 83.839844 L 109.246094 83.839844 L 109.246094 120.257812 L 72.828125 120.257812 Z M 72.828125 83.839844 " clip-rule="nonzero"/></clipPath><clipPath id="4d150691ce"><path d="M 91.035156 83.839844 C 89.839844 83.839844 88.65625 83.953125 87.484375 84.1875 C 86.3125 84.421875 85.171875 84.765625 84.066406 85.222656 C 82.964844 85.679688 81.914062 86.242188 80.917969 86.90625 C 79.925781 87.570312 79.003906 88.324219 78.160156 89.171875 C 77.316406 90.015625 76.558594 90.9375 75.894531 91.929688 C 75.230469 92.925781 74.671875 93.972656 74.214844 95.078125 C 73.753906 96.183594 73.410156 97.320312 73.175781 98.496094 C 72.945312 99.667969 72.828125 100.851562 72.828125 102.046875 C 72.828125 103.242188 72.945312 104.425781 73.175781 105.601562 C 73.410156 106.773438 73.753906 107.910156 74.214844 109.015625 C 74.671875 110.121094 75.230469 111.171875 75.894531 112.164062 C 76.558594 113.160156 77.316406 114.078125 78.160156 114.921875 C 79.003906 115.769531 79.925781 116.523438 80.917969 117.1875 C 81.914062 117.851562 82.964844 118.414062 84.066406 118.871094 C 85.171875 119.328125 86.3125 119.671875 87.484375 119.90625 C 88.65625 120.140625 89.839844 120.257812 91.035156 120.257812 C 92.230469 120.257812 93.417969 120.140625 94.589844 119.90625 C 95.761719 119.671875 96.898438 119.328125 98.003906 118.871094 C 99.109375 118.414062 100.160156 117.851562 101.152344 117.1875 C 102.148438 116.523438 103.066406 115.769531 103.914062 114.921875 C 104.757812 114.078125 105.511719 113.160156 106.175781 112.164062 C 106.839844 111.171875 107.402344 110.121094 107.859375 109.015625 C 108.316406 107.910156 108.664062 106.773438 108.894531 105.601562 C 109.128906 104.425781 109.246094 103.242188 109.246094 102.046875 C 109.246094 100.851562 109.128906 99.667969 108.894531 98.496094 C 108.664062 97.320312 108.316406 96.183594 107.859375 95.078125 C 107.402344 93.972656 106.839844 92.925781 106.175781 91.929688 C 105.511719 90.9375 104.757812 90.015625 103.914062 89.171875 C 103.066406 88.324219 102.148438 87.570312 101.152344 86.90625 C 100.160156 86.242188 99.109375 85.679688 98.003906 85.222656 C 96.898438 84.765625 95.761719 84.421875 94.589844 84.1875 C 93.417969 83.953125 92.230469 83.839844 91.035156 83.839844 Z M 91.035156 83.839844 " clip-rule="nonzero"/></clipPath><clipPath id="719a6e2c7e"><path d="M 131.101562 83.839844 L 167.519531 83.839844 L 167.519531 120.257812 L 131.101562 120.257812 Z M 131.101562 83.839844 " clip-rule="nonzero"/></clipPath><clipPath id="f68d2a7653"><path d="M 149.308594 83.839844 C 148.113281 83.839844 146.929688 83.953125 145.757812 84.1875 C 144.582031 84.421875 143.445312 84.765625 142.339844 85.222656 C 141.234375 85.679688 140.1875 86.242188 139.191406 86.90625 C 138.199219 87.570312 137.277344 88.324219 136.433594 89.171875 C 135.585938 90.015625 134.832031 90.9375 134.167969 91.929688 C 133.503906 92.925781 132.941406 93.972656 132.484375 95.078125 C 132.027344 96.183594 131.683594 97.320312 131.449219 98.496094 C 131.214844 99.667969 131.101562 100.851562 131.101562 102.046875 C 131.101562 103.242188 131.214844 104.425781 131.449219 105.601562 C 131.683594 106.773438 132.027344 107.910156 132.484375 109.015625 C 132.941406 110.121094 133.503906 111.167969 134.167969 112.164062 C 134.832031 113.15625 135.585938 114.078125 136.433594 114.921875 C 137.277344 115.769531 138.199219 116.523438 139.191406 117.1875 C 140.1875 117.851562 141.234375 118.414062 142.339844 118.871094 C 143.445312 119.328125 144.582031 119.671875 145.757812 119.90625 C 146.929688 120.140625 148.113281 120.257812 149.308594 120.257812 C 150.503906 120.257812 151.6875 120.140625 152.863281 119.90625 C 154.035156 119.671875 155.171875 119.328125 156.277344 118.871094 C 157.382812 118.414062 158.429688 117.851562 159.425781 117.1875 C 160.417969 116.523438 161.339844 115.769531 162.183594 114.921875 C 163.03125 114.078125 163.785156 113.15625 164.449219 112.164062 C 165.113281 111.167969 165.675781 110.121094 166.132812 109.015625 C 166.589844 107.910156 166.933594 106.773438 167.167969 105.601562 C 167.402344 104.425781 167.519531 103.242188 167.519531 102.046875 C 167.519531 100.851562 167.402344 99.667969 167.167969 98.496094 C 166.933594 97.320312 166.589844 96.183594 166.132812 95.078125 C 165.675781 93.972656 165.113281 92.925781 164.449219 91.929688 C 163.785156 90.9375 163.03125 90.015625 162.183594 89.171875 C 161.339844 88.324219 160.417969 87.570312 159.425781 86.90625 C 158.429688 86.242188 157.382812 85.679688 156.277344 85.222656 C 155.171875 84.765625 154.035156 84.421875 152.863281 84.1875 C 151.6875 83.953125 150.503906 83.839844 149.308594 83.839844 Z M 149.308594 83.839844 " clip-rule="nonzero"/></clipPath></defs><g fill="#222222" fill-opacity="1"><g transform="translate(9.559273, 184.194978)"><g><path d="M 22 -40.3125 C 25.488281 -40.3125 28.53125 -39.734375 31.125 -38.578125 C 33.71875 -37.429688 35.703125 -35.78125 37.078125 -33.625 C 38.460938 -31.476562 39.15625 -28.925781 39.15625 -25.96875 C 39.15625 -23.050781 38.460938 -20.507812 37.078125 -18.34375 C 35.703125 -16.175781 33.71875 -14.515625 31.125 -13.359375 C 28.53125 -12.210938 25.488281 -11.640625 22 -11.640625 L 12.90625 -11.640625 L 12.90625 0 L 5.40625 0 L 5.40625 -40.3125 Z M 21.65625 -17.96875 C 24.914062 -17.96875 27.390625 -18.65625 29.078125 -20.03125 C 30.773438 -21.414062 31.625 -23.394531 31.625 -25.96875 C 31.625 -28.539062 30.773438 -30.519531 29.078125 -31.90625 C 27.390625 -33.289062 24.914062 -33.984375 21.65625 -33.984375 L 12.90625 -33.984375 L 12.90625 -17.96875 Z M 21.65625 -17.96875 "/></g></g></g><g fill="#222222" fill-opacity="1"><g transform="translate(76.709927, 184.194978)"><g><path d="M 31.796875 0 L 23.5625 -11.8125 C 23.207031 -11.769531 22.6875 -11.75 22 -11.75 L 12.90625 -11.75 L 12.90625 0 L 5.40625 0 L 5.40625 -40.3125 L 22 -40.3125 C 25.488281 -40.3125 28.53125 -39.734375 31.125 -38.578125 C 33.71875 -37.429688 35.703125 -35.78125 37.078125 -33.625 C 38.460938 -31.476562 39.15625 -28.925781 39.15625 -25.96875 C 39.15625 -22.9375 38.414062 -20.328125 36.9375 -18.140625 C 35.46875 -15.953125 33.347656 -14.320312 30.578125 -13.25 L 39.859375 0 Z M 31.625 -25.96875 C 31.625 -28.539062 30.773438 -30.519531 29.078125 -31.90625 C 27.390625 -33.289062 24.914062 -33.984375 21.65625 -33.984375 L 12.90625 -33.984375 L 12.90625 -17.90625 L 21.65625 -17.90625 C 24.914062 -17.90625 27.390625 -18.601562 29.078125 -20 C 30.773438 -21.40625 31.625 -23.394531 31.625 -25.96875 Z M 31.625 -25.96875 "/></g></g></g><g fill="#222222" fill-opacity="1"><g transform="translate(144.148511, 184.194978)"><g><path d="M 24.25 0.578125 C 20.132812 0.578125 16.425781 -0.3125 13.125 -2.09375 C 9.820312 -3.882812 7.226562 -6.363281 5.34375 -9.53125 C 3.46875 -12.695312 2.53125 -16.238281 2.53125 -20.15625 C 2.53125 -24.070312 3.46875 -27.613281 5.34375 -30.78125 C 7.226562 -33.945312 9.820312 -36.421875 13.125 -38.203125 C 16.425781 -39.992188 20.132812 -40.890625 24.25 -40.890625 C 28.351562 -40.890625 32.054688 -39.992188 35.359375 -38.203125 C 38.660156 -36.421875 41.25 -33.957031 43.125 -30.8125 C 45.007812 -27.664062 45.953125 -24.113281 45.953125 -20.15625 C 45.953125 -16.195312 45.007812 -12.644531 43.125 -9.5 C 41.25 -6.351562 38.660156 -3.882812 35.359375 -2.09375 C 32.054688 -0.3125 28.351562 0.578125 24.25 0.578125 Z M 24.25 -5.984375 C 26.9375 -5.984375 29.351562 -6.585938 31.5 -7.796875 C 33.65625 -9.015625 35.347656 -10.707031 36.578125 -12.875 C 37.804688 -15.039062 38.421875 -17.46875 38.421875 -20.15625 C 38.421875 -22.84375 37.804688 -25.269531 36.578125 -27.4375 C 35.347656 -29.613281 33.65625 -31.304688 31.5 -32.515625 C 29.351562 -33.722656 26.9375 -34.328125 24.25 -34.328125 C 21.5625 -34.328125 19.140625 -33.722656 16.984375 -32.515625 C 14.835938 -31.304688 13.148438 -29.613281 11.921875 -27.4375 C 10.691406 -25.269531 10.078125 -22.84375 10.078125 -20.15625 C 10.078125 -17.46875 10.691406 -15.039062 11.921875 -12.875 C 13.148438 -10.707031 14.835938 -9.015625 16.984375 -7.796875 C 19.140625 -6.585938 21.5625 -5.984375 24.25 -5.984375 Z M 24.25 -5.984375 "/></g></g></g><g fill="#222222" fill-opacity="1"><g transform="translate(14.554101, 240.572363)"><g><path d="M 11.484375 -18.46875 C 9.242188 -18.46875 7.476562 -17.722656 6.1875 -16.234375 C 4.90625 -14.753906 4.265625 -12.722656 4.265625 -10.140625 C 4.265625 -7.484375 4.882812 -5.429688 6.125 -3.984375 C 7.375 -2.535156 9.148438 -1.8125 11.453125 -1.8125 C 12.867188 -1.8125 14.484375 -2.066406 16.296875 -2.578125 L 16.296875 -0.515625 C 14.890625 0.015625 13.15625 0.28125 11.09375 0.28125 C 8.101562 0.28125 5.796875 -0.625 4.171875 -2.4375 C 2.546875 -4.25 1.734375 -6.828125 1.734375 -10.171875 C 1.734375 -12.265625 2.125 -14.097656 2.90625 -15.671875 C 3.6875 -17.242188 4.8125 -18.453125 6.28125 -19.296875 C 7.757812 -20.148438 9.5 -20.578125 11.5 -20.578125 C 13.632812 -20.578125 15.492188 -20.191406 17.078125 -19.421875 L 16.078125 -17.390625 C 14.546875 -18.109375 13.015625 -18.46875 11.484375 -18.46875 Z M 11.484375 -18.46875 "/></g></g></g><g fill="#222222" fill-opacity="1"><g transform="translate(40.150945, 240.572363)"><g><path d="M 20.40625 -10.171875 C 20.40625 -6.921875 19.582031 -4.363281 17.9375 -2.5 C 16.289062 -0.644531 14.007812 0.28125 11.09375 0.28125 C 8.101562 0.28125 5.796875 -0.628906 4.171875 -2.453125 C 2.546875 -4.285156 1.734375 -6.867188 1.734375 -10.203125 C 1.734375 -13.503906 2.546875 -16.0625 4.171875 -17.875 C 5.804688 -19.695312 8.117188 -20.609375 11.109375 -20.609375 C 14.023438 -20.609375 16.300781 -19.679688 17.9375 -17.828125 C 19.582031 -15.984375 20.40625 -13.429688 20.40625 -10.171875 Z M 4.234375 -10.171875 C 4.234375 -7.421875 4.816406 -5.335938 5.984375 -3.921875 C 7.160156 -2.503906 8.863281 -1.796875 11.09375 -1.796875 C 13.332031 -1.796875 15.023438 -2.5 16.171875 -3.90625 C 17.328125 -5.320312 17.90625 -7.410156 17.90625 -10.171875 C 17.90625 -12.898438 17.332031 -14.96875 16.1875 -16.375 C 15.039062 -17.789062 13.347656 -18.5 11.109375 -18.5 C 8.867188 -18.5 7.160156 -17.785156 5.984375 -16.359375 C 4.816406 -14.941406 4.234375 -12.878906 4.234375 -10.171875 Z M 4.234375 -10.171875 "/></g></g></g><g fill="#222222" fill-opacity="1"><g transform="translate(69.950476, 240.572363)"><g><path d="M 18.640625 0 L 15.953125 0 L 4.859375 -17.03125 L 4.75 -17.03125 C 4.894531 -15.03125 4.96875 -13.195312 4.96875 -11.53125 L 4.96875 0 L 2.796875 0 L 2.796875 -20.296875 L 5.453125 -20.296875 L 16.515625 -3.328125 L 16.625 -3.328125 C 16.601562 -3.578125 16.5625 -4.378906 16.5 -5.734375 C 16.4375 -7.085938 16.414062 -8.054688 16.4375 -8.640625 L 16.4375 -20.296875 L 18.640625 -20.296875 Z M 18.640625 0 "/></g></g></g><g fill="#222222" fill-opacity="1"><g transform="translate(99.042616, 240.572363)"><g><path d="M 14.234375 -5.40625 C 14.234375 -3.613281 13.585938 -2.21875 12.296875 -1.21875 C 11.003906 -0.21875 9.242188 0.28125 7.015625 0.28125 C 4.609375 0.28125 2.757812 -0.03125 1.46875 -0.65625 L 1.46875 -2.921875 C 2.300781 -2.578125 3.207031 -2.300781 4.1875 -2.09375 C 5.164062 -1.894531 6.140625 -1.796875 7.109375 -1.796875 C 8.679688 -1.796875 9.863281 -2.09375 10.65625 -2.6875 C 11.457031 -3.28125 11.859375 -4.109375 11.859375 -5.171875 C 11.859375 -5.878906 11.710938 -6.457031 11.421875 -6.90625 C 11.140625 -7.351562 10.664062 -7.765625 10 -8.140625 C 9.34375 -8.523438 8.34375 -8.957031 7 -9.4375 C 5.101562 -10.113281 3.75 -10.910156 2.9375 -11.828125 C 2.132812 -12.753906 1.734375 -13.960938 1.734375 -15.453125 C 1.734375 -17.023438 2.320312 -18.269531 3.5 -19.1875 C 4.675781 -20.113281 6.226562 -20.578125 8.15625 -20.578125 C 10.175781 -20.578125 12.03125 -20.207031 13.71875 -19.46875 L 12.984375 -17.421875 C 11.316406 -18.117188 9.691406 -18.46875 8.109375 -18.46875 C 6.859375 -18.46875 5.878906 -18.195312 5.171875 -17.65625 C 4.472656 -17.125 4.125 -16.382812 4.125 -15.4375 C 4.125 -14.726562 4.253906 -14.148438 4.515625 -13.703125 C 4.773438 -13.253906 5.210938 -12.84375 5.828125 -12.46875 C 6.441406 -12.09375 7.378906 -11.679688 8.640625 -11.234375 C 10.773438 -10.472656 12.238281 -9.65625 13.03125 -8.78125 C 13.832031 -7.914062 14.234375 -6.789062 14.234375 -5.40625 Z M 14.234375 -5.40625 "/></g></g></g><g fill="#222222" fill-opacity="1"><g transform="translate(122.309263, 240.572363)"><g><path d="M 18.109375 -20.296875 L 18.109375 -7.15625 C 18.109375 -4.84375 17.410156 -3.023438 16.015625 -1.703125 C 14.617188 -0.378906 12.695312 0.28125 10.25 0.28125 C 7.8125 0.28125 5.921875 -0.382812 4.578125 -1.71875 C 3.242188 -3.050781 2.578125 -4.882812 2.578125 -7.21875 L 2.578125 -20.296875 L 4.9375 -20.296875 L 4.9375 -7.046875 C 4.9375 -5.359375 5.398438 -4.0625 6.328125 -3.15625 C 7.253906 -2.25 8.613281 -1.796875 10.40625 -1.796875 C 12.113281 -1.796875 13.429688 -2.25 14.359375 -3.15625 C 15.285156 -4.070312 15.75 -5.378906 15.75 -7.078125 L 15.75 -20.296875 Z M 18.109375 -20.296875 "/></g></g></g><g fill="#222222" fill-opacity="1"><g transform="translate(150.666291, 240.572363)"><g><path d="M 2.796875 0 L 2.796875 -20.296875 L 5.15625 -20.296875 L 5.15625 -2.140625 L 14.09375 -2.140625 L 14.09375 0 Z M 2.796875 0 "/></g></g></g><g fill="#222222" fill-opacity="1"><g transform="translate(173.086864, 240.572363)"><g><path d="M 9.03125 0 L 6.671875 0 L 6.671875 -18.1875 L 0.25 -18.1875 L 0.25 -20.296875 L 15.453125 -20.296875 L 15.453125 -18.1875 L 9.03125 -18.1875 Z M 9.03125 0 "/></g></g></g><g fill="#222222" fill-opacity="1"><g transform="translate(196.478361, 240.572363)"><g><path d="M 2.796875 0 L 2.796875 -20.296875 L 5.15625 -20.296875 L 5.15625 0 Z M 2.796875 0 "/></g></g></g><g fill="#222222" fill-opacity="1"><g transform="translate(212.074794, 240.572363)"><g><path d="M 18.640625 0 L 15.953125 0 L 4.859375 -17.03125 L 4.75 -17.03125 C 4.894531 -15.03125 4.96875 -13.195312 4.96875 -11.53125 L 4.96875 0 L 2.796875 0 L 2.796875 -20.296875 L 5.453125 -20.296875 L 16.515625 -3.328125 L 16.625 -3.328125 C 16.601562 -3.578125 16.5625 -4.378906 16.5 -5.734375 C 16.4375 -7.085938 16.414062 -8.054688 16.4375 -8.640625 L 16.4375 -20.296875 L 18.640625 -20.296875 Z M 18.640625 0 "/></g></g></g><g fill="#222222" fill-opacity="1"><g transform="translate(241.166944, 240.572363)"><g><path d="M 11.71875 -10.625 L 18.609375 -10.625 L 18.609375 -0.765625 C 17.535156 -0.421875 16.441406 -0.160156 15.328125 0.015625 C 14.222656 0.191406 12.941406 0.28125 11.484375 0.28125 C 8.410156 0.28125 6.015625 -0.628906 4.296875 -2.453125 C 2.585938 -4.285156 1.734375 -6.847656 1.734375 -10.140625 C 1.734375 -12.253906 2.15625 -14.101562 3 -15.6875 C 3.851562 -17.269531 5.070312 -18.476562 6.65625 -19.3125 C 8.25 -20.15625 10.113281 -20.578125 12.25 -20.578125 C 14.414062 -20.578125 16.4375 -20.179688 18.3125 -19.390625 L 17.390625 -17.3125 C 15.554688 -18.082031 13.789062 -18.46875 12.09375 -18.46875 C 9.625 -18.46875 7.695312 -17.734375 6.3125 -16.265625 C 4.925781 -14.796875 4.234375 -12.753906 4.234375 -10.140625 C 4.234375 -7.398438 4.898438 -5.320312 6.234375 -3.90625 C 7.578125 -2.5 9.539062 -1.796875 12.125 -1.796875 C 13.53125 -1.796875 14.90625 -1.957031 16.25 -2.28125 L 16.25 -8.515625 L 11.71875 -8.515625 Z M 11.71875 -10.625 "/></g></g></g><g clip-path="url(#6c6f5004cf)"><g clip-path="url(#bb8407ba0b)"><path fill="#078586" d="M 14.554688 83.839844 L 50.972656 83.839844 L 50.972656 120.257812 L 14.554688 120.257812 Z M 14.554688 83.839844 " fill-opacity="1" fill-rule="nonzero"/></g></g><g clip-path="url(#9a0be55c06)"><g clip-path="url(#4d150691ce)"><path fill="#a8a8a8" d="M 72.828125 83.839844 L 109.246094 83.839844 L 109.246094 120.257812 L 72.828125 120.257812 Z M 72.828125 83.839844 " fill-opacity="1" fill-rule="nonzero"/></g></g><g clip-path="url(#719a6e2c7e)"><g clip-path="url(#f68d2a7653)"><path fill="#e4e4e4" d="M 131.101562 83.839844 L 167.519531 83.839844 L 167.519531 120.257812 L 131.101562 120.257812 Z M 131.101562 83.839844 " fill-opacity="1" fill-rule="nonzero"/></g></g><g fill="#222222" fill-opacity="1"><g transform="translate(211.181182, 184.510476)"><g><path d="M 16.046875 0.390625 C 13.335938 0.390625 10.890625 -0.203125 8.703125 -1.390625 C 6.515625 -2.585938 4.796875 -4.234375 3.546875 -6.328125 C 2.304688 -8.429688 1.6875 -10.800781 1.6875 -13.4375 C 1.6875 -16.070312 2.3125 -18.441406 3.5625 -20.546875 C 4.820312 -22.648438 6.546875 -24.296875 8.734375 -25.484375 C 10.921875 -26.671875 13.375 -27.265625 16.09375 -27.265625 C 18.289062 -27.265625 20.296875 -26.878906 22.109375 -26.109375 C 23.929688 -25.347656 25.472656 -24.238281 26.734375 -22.78125 L 23.5 -19.734375 C 21.550781 -21.835938 19.160156 -22.890625 16.328125 -22.890625 C 14.484375 -22.890625 12.828125 -22.484375 11.359375 -21.671875 C 9.898438 -20.867188 8.757812 -19.75 7.9375 -18.3125 C 7.125 -16.882812 6.71875 -15.257812 6.71875 -13.4375 C 6.71875 -11.625 7.125 -10 7.9375 -8.5625 C 8.757812 -7.125 9.898438 -6.003906 11.359375 -5.203125 C 12.828125 -4.398438 14.484375 -4 16.328125 -4 C 19.160156 -4 21.550781 -5.0625 23.5 -7.1875 L 26.734375 -4.109375 C 25.472656 -2.648438 23.925781 -1.535156 22.09375 -0.765625 C 20.269531 0.00390625 18.253906 0.390625 16.046875 0.390625 Z M 16.046875 0.390625 "/></g></g></g><g fill="#222222" fill-opacity="1"><g transform="translate(255.992283, 184.510476)"><g><path d="M 23.765625 -4.1875 L 23.765625 0 L 3.609375 0 L 3.609375 -26.890625 L 23.234375 -26.890625 L 23.234375 -22.703125 L 8.609375 -22.703125 L 8.609375 -15.703125 L 21.578125 -15.703125 L 21.578125 -11.59375 L 8.609375 -11.59375 L 8.609375 -4.1875 Z M 23.765625 -4.1875 "/></g></g></g><g fill="#222222" fill-opacity="1"><g transform="translate(298.614667, 184.510476)"><g><path d="M 11.9375 0.390625 C 9.863281 0.390625 7.859375 0.0976562 5.921875 -0.484375 C 3.992188 -1.078125 2.46875 -1.863281 1.34375 -2.84375 L 3.078125 -6.71875 C 4.171875 -5.851562 5.519531 -5.144531 7.125 -4.59375 C 8.726562 -4.039062 10.332031 -3.765625 11.9375 -3.765625 C 13.9375 -3.765625 15.425781 -4.082031 16.40625 -4.71875 C 17.394531 -5.363281 17.890625 -6.210938 17.890625 -7.265625 C 17.890625 -8.023438 17.613281 -8.65625 17.0625 -9.15625 C 16.519531 -9.65625 15.828125 -10.046875 14.984375 -10.328125 C 14.140625 -10.609375 12.984375 -10.929688 11.515625 -11.296875 C 9.472656 -11.773438 7.816406 -12.257812 6.546875 -12.75 C 5.273438 -13.238281 4.1875 -14 3.28125 -15.03125 C 2.375 -16.070312 1.921875 -17.472656 1.921875 -19.234375 C 1.921875 -20.722656 2.320312 -22.078125 3.125 -23.296875 C 3.9375 -24.515625 5.15625 -25.476562 6.78125 -26.1875 C 8.40625 -26.90625 10.394531 -27.265625 12.75 -27.265625 C 14.382812 -27.265625 15.992188 -27.0625 17.578125 -26.65625 C 19.171875 -26.25 20.546875 -25.660156 21.703125 -24.890625 L 20.125 -21.015625 C 18.945312 -21.703125 17.71875 -22.222656 16.4375 -22.578125 C 15.15625 -22.941406 13.914062 -23.125 12.71875 -23.125 C 10.738281 -23.125 9.269531 -22.789062 8.3125 -22.125 C 7.351562 -21.457031 6.875 -20.570312 6.875 -19.46875 C 6.875 -18.695312 7.148438 -18.066406 7.703125 -17.578125 C 8.253906 -17.097656 8.953125 -16.71875 9.796875 -16.4375 C 10.640625 -16.15625 11.789062 -15.835938 13.25 -15.484375 C 15.25 -15.015625 16.890625 -14.53125 18.171875 -14.03125 C 19.453125 -13.53125 20.546875 -12.769531 21.453125 -11.75 C 22.359375 -10.726562 22.8125 -9.347656 22.8125 -7.609375 C 22.8125 -6.117188 22.40625 -4.769531 21.59375 -3.5625 C 20.789062 -2.363281 19.570312 -1.40625 17.9375 -0.6875 C 16.300781 0.03125 14.300781 0.390625 11.9375 0.390625 Z M 11.9375 0.390625 "/></g></g></g><g fill="#222222" fill-opacity="1"><g transform="translate(339.662703, 184.510476)"><g><path d="M 11.9375 0.390625 C 9.863281 0.390625 7.859375 0.0976562 5.921875 -0.484375 C 3.992188 -1.078125 2.46875 -1.863281 1.34375 -2.84375 L 3.078125 -6.71875 C 4.171875 -5.851562 5.519531 -5.144531 7.125 -4.59375 C 8.726562 -4.039062 10.332031 -3.765625 11.9375 -3.765625 C 13.9375 -3.765625 15.425781 -4.082031 16.40625 -4.71875 C 17.394531 -5.363281 17.890625 -6.210938 17.890625 -7.265625 C 17.890625 -8.023438 17.613281 -8.65625 17.0625 -9.15625 C 16.519531 -9.65625 15.828125 -10.046875 14.984375 -10.328125 C 14.140625 -10.609375 12.984375 -10.929688 11.515625 -11.296875 C 9.472656 -11.773438 7.816406 -12.257812 6.546875 -12.75 C 5.273438 -13.238281 4.1875 -14 3.28125 -15.03125 C 2.375 -16.070312 1.921875 -17.472656 1.921875 -19.234375 C 1.921875 -20.722656 2.320312 -22.078125 3.125 -23.296875 C 3.9375 -24.515625 5.15625 -25.476562 6.78125 -26.1875 C 8.40625 -26.90625 10.394531 -27.265625 12.75 -27.265625 C 14.382812 -27.265625 15.992188 -27.0625 17.578125 -26.65625 C 19.171875 -26.25 20.546875 -25.660156 21.703125 -24.890625 L 20.125 -21.015625 C 18.945312 -21.703125 17.71875 -22.222656 16.4375 -22.578125 C 15.15625 -22.941406 13.914062 -23.125 12.71875 -23.125 C 10.738281 -23.125 9.269531 -22.789062 8.3125 -22.125 C 7.351562 -21.457031 6.875 -20.570312 6.875 -19.46875 C 6.875 -18.695312 7.148438 -18.066406 7.703125 -17.578125 C 8.253906 -17.097656 8.953125 -16.71875 9.796875 -16.4375 C 10.640625 -16.15625 11.789062 -15.835938 13.25 -15.484375 C 15.25 -15.015625 16.890625 -14.53125 18.171875 -14.03125 C 19.453125 -13.53125 20.546875 -12.769531 21.453125 -11.75 C 22.359375 -10.726562 22.8125 -9.347656 22.8125 -7.609375 C 22.8125 -6.117188 22.40625 -4.769531 21.59375 -3.5625 C 20.789062 -2.363281 19.570312 -1.40625 17.9375 -0.6875 C 16.300781 0.03125 14.300781 0.390625 11.9375 0.390625 Z M 11.9375 0.390625 "/></g></g></g></svg>